<svg xmlns="http://www.w3.org/2000/svg" width="116" height="24" viewBox="0 0 116 24">
    <g fill="none">
        <g>
            <path fill="#FFC300" d="M10.972 23.943L0.017 15.74 0.017 11.642 6.324 13.075 10.977 19.6 15.622 13.075 21.929 11.642 21.929 11.642 21.931 11.642 21.931 15.74z" transform="translate(.043)"/>
            <path fill="#FF8D00" d="M.017 2.102v9.54H.02l10.954-6.209S2.765.619 2.063.335C.743-.205.017-.285.017 2.102z" transform="translate(.043)"/>
            <path fill="#FF4F00" d="M19.885.335c-.702.284-8.887 5.083-8.887 5.083L.018 11.642l6.308 1.433 4.646 6.525 4.655-6.525 6.304-1.433v-9.54c0-2.387-.726-2.308-2.046-1.767z" transform="translate(.043)"/>
        </g>
        <g fill="#000">
            <path d="M8.963 9.127c0-2.458-.715-4.372-3.683-4.372-1.494 0-2.621.805-3.163 1.827h-.043V.275H.016v15.007h2.058v-5.111c0-2.066.802-3.698 2.686-3.698 1.885 0 2.124 1.48 2.124 2.959v5.85h2.08V9.127zm10.228.152c0-1.762-.412-2.632-1.105-3.35-.693-.695-1.69-1.174-3.401-1.174-1.712 0-3.098.61-3.857 1.044l.629 1.392c.346-.217 1.603-.892 3.098-.892 1.494 0 2.556.783 2.556 2.35v.413l-2.751.108c-2.383.11-4.03 1.132-4.03 3.154 0 2.001 1.647 3.198 3.553 3.198 1.885 0 2.86-1.11 3.271-1.545l.022 1.305h2.015V9.28zm-2.058 3.263c-.39.587-1.279 1.5-2.622 1.5-1.365 0-2.123-.804-2.123-1.783 0-.979.672-1.696 2.34-1.783l2.405-.153v2.219zm14.885-2.436c0-3.067-1.928-5.35-4.961-5.35-1.517 0-2.751.608-3.661 1.826h-.044V4.951H21.36v14.377h2.08v-5.677l.022.022c.736 1.153 1.928 1.849 3.553 1.849 3.054 0 5.004-2.35 5.004-5.416zm-2.123-.022c0 2.066-1.213 3.654-3.271 3.654s-3.272-1.588-3.272-3.654 1.214-3.632 3.272-3.632 3.27 1.566 3.27 3.632zm14.452.022c0-3.067-1.928-5.35-4.961-5.35-1.517 0-2.752.608-3.661 1.826h-.044V4.951h-1.993v14.377h2.08v-5.677l.022.022c.736 1.153 1.928 1.849 3.552 1.849 3.055 0 5.005-2.35 5.005-5.416zm-2.123-.022c0 2.066-1.213 3.654-3.271 3.654-2.059 0-3.272-1.588-3.272-3.654s1.213-3.632 3.272-3.632c2.058 0 3.27 1.566 3.27 3.632zm10.01-5.155l-3.032 8.048-3.055-8.026-2.166-.022 4.116 10.136-.498 1.37c-.455 1.262-.91 1.218-1.344 1.218-.52 0-1.083-.24-1.083-.24l-.411 1.697s.801.37 1.95.37c1.148 0 1.992-.609 2.707-2.392L54.38 4.95l-2.144-.022zM60.633.24S60.063 0 58.9 0c-1.163 0-1.967.567-2.41 1.134-.423.545-.677 1.417-.677 2.768V15.282h2.008V6.627h2.39V4.95h-2.39V3.793c0-1.177.212-2.202 1.544-2.202.57 0 1.141.197 1.141.197L60.633.24zM70.998 10.15c0-3.198-2.383-5.395-5.437-5.395-3.077 0-5.46 2.197-5.46 5.394 0 3.22 2.383 5.373 5.46 5.373 3.054 0 5.437-2.154 5.437-5.373zm-2.101-.066c0 2.045-1.278 3.654-3.336 3.654-2.08 0-3.358-1.61-3.358-3.654 0-2.023 1.278-3.632 3.358-3.632 2.058 0 3.336 1.61 3.336 3.632zm8.299-.24l3.726-4.893h-2.318l-2.622 3.72-2.62-3.72h-2.297l3.704 4.894-4.18 5.437h2.339l3.054-4.197 3.055 4.197h2.34l-4.181-5.437z" transform="translate(33.319 .86)"/>
        </g>
    </g>
</svg>
