<?xml version="1.0" encoding="UTF-8"?>
<svg width="20px" height="20px" viewBox="0 0 20 20" version="1.1" xmlns="http://www.w3.org/2000/svg" xmlns:xlink="http://www.w3.org/1999/xlink">
    <title>Group 14</title>
    <g id="Page-1" stroke="none" stroke-width="1" fill="none" fill-rule="evenodd">
        <g id="HD" transform="translate(-42.000000, -73.000000)">
            <g id="Group-9" transform="translate(42.000000, 68.000000)">
                <g id="Group-14" transform="translate(0.000000, 5.000000)">
                    <g id="Group-10-Copy-3" fill="#000000">
                        <path d="M10,20 L10,20 C4.47724138,20 0,15.5227586 0,10 L0,10 C0,4.47724138 4.47724138,0 10,0 L10,0 C15.5227586,0 20,4.47724138 20,10 L20,10 C20,15.5227586 15.5227586,20 10,20" id="Fill-35"></path>
                    </g>
                    <g id="Group-13" transform="translate(4.827586, 5.517241)" fill="#FFFFFF">
                        <path d="M1.77801724,2.4137931 C0.986487069,2.4137931 0.344827586,1.87344828 0.344827586,1.20689655 C0.344827586,0.540344828 0.986487069,0 1.77801724,0 L5.46336207,0 C6.25489224,0 6.89655172,0.540344828 6.89655172,1.20689655 C6.89655172,1.87344828 6.25489224,2.4137931 5.46336207,2.4137931 L1.77801724,2.4137931 Z" id="Fill-27"></path>
                        <path d="M4.31034483,5.86206897 C3.6437931,5.86206897 3.10344828,5.32172414 3.10344828,4.65517241 C3.10344828,3.98862069 3.6437931,3.44827586 4.31034483,3.44827586 L9.48275862,3.44827586 C10.1493103,3.44827586 10.6896552,3.98862069 10.6896552,4.65517241 C10.6896552,5.32172414 10.1493103,5.86206897 9.48275862,5.86206897 L4.31034483,5.86206897 Z" id="Fill-27-Copy"></path>
                        <path d="M1.20689655,9.31034483 C0.540344828,9.31034483 0,8.77 0,8.10344828 C0,7.43689655 0.540344828,6.89655172 1.20689655,6.89655172 L4.65517241,6.89655172 C5.32172414,6.89655172 5.86206897,7.43689655 5.86206897,8.10344828 C5.86206897,8.77 5.32172414,9.31034483 4.65517241,9.31034483 L1.20689655,9.31034483 Z" id="Fill-27-Copy-2"></path>
                    </g>
                </g>
            </g>
        </g>
    </g>
</svg>