<?xml version="1.0" encoding="UTF-8"?>
<svg width="90px" height="80px" viewBox="0 0 90 80" version="1.1" xmlns="http://www.w3.org/2000/svg" xmlns:xlink="http://www.w3.org/1999/xlink">
    <title>LC</title>
    <g id="Help-Desk-Pricing" stroke="none" stroke-width="1" fill="none" fill-rule="evenodd">
        <g id="01A-Pricing_Help-Desk" transform="translate(-358.000000, -2249.000000)">
            <g id="Group-8" transform="translate(358.000000, 2249.000000)">
                <rect id="Rectangle" x="0" y="0" width="90" height="80"></rect>
                <path d="M35.6022727,13 C41.8482953,13 47.5046049,15.4324477 51.5983609,19.3701755 C55.6777785,23.2941114 58.2045455,28.7139702 58.2045455,34.7027027 C58.2045455,40.4643544 55.8657834,45.6996155 52.0555778,49.582557 C48.1747795,53.5374386 42.7686961,56.0907342 36.7435256,56.3782385 L36.7435256,56.3782385 L27.9205338,59.9654788 L30.1972016,55.7811236 C24.9964601,54.5558401 20.5006646,51.6010637 17.4103178,47.5842673 C14.6396294,43.9829593 13,39.5271599 13,34.7027027 C13,28.7139702 15.526767,23.2941114 19.6061846,19.3701755 C23.6999405,15.4324477 29.3562502,13 35.6022727,13 Z" id="Oval-Copy-7" stroke="#FF6200" stroke-width="2"></path>
                <path d="M55.3977273,19.0540541 C61.6437498,19.0540541 67.3000595,21.4865018 71.3938154,25.4242295 C75.473233,29.3481654 78,34.7680243 78,40.7567568 C78,46.5184084 75.6612379,51.7536696 71.8510323,55.636611 C67.970234,59.5914926 62.5641506,62.1447883 56.5389801,62.4322926 L56.5389801,62.4322926 L47.7159884,66.0195329 L49.9926562,61.8351777 C44.7919147,60.6098941 40.2961191,57.6551177 37.2057723,53.6383213 C34.435084,50.0370133 32.7954545,45.5812139 32.7954545,40.7567568 C32.7954545,34.7680243 35.3222215,29.3481654 39.4016391,25.4242295 C43.4953951,21.4865018 49.1517047,19.0540541 55.3977273,19.0540541 Z" id="Oval-Copy-8" stroke="#FFD243" stroke-width="2" transform="translate(55.397727, 43.027027) scale(-1, 1) translate(-55.397727, -43.027027) "></path>
            </g>
        </g>
    </g>
</svg>