<?xml version="1.0" encoding="UTF-8"?>
<svg width="20px" height="20px" viewBox="0 0 20 20" version="1.1" xmlns="http://www.w3.org/2000/svg" xmlns:xlink="http://www.w3.org/1999/xlink">
    <!-- Generator: Sketch 52.2 (67145) - http://www.bohemiancoding.com/sketch -->
    <title>Artboard</title>
    <desc>Created with Sketch.</desc>
    <g id="Artboard" stroke="none" stroke-width="1" fill="none" fill-rule="evenodd">
        <g id="arrow">
            <g>
                <rect id="Rectangle-3" x="0" y="0" width="20" height="20"></rect>
                <path d="M16.66983,6.89507105 L8.59505595,14.6814237 C8.15092589,15.1101054 7.4200347,15.1055546 6.97065901,14.671412 L6.96978474,14.671412 C6.90451448,14.6069845 6.84456154,14.5369596 6.79055903,14.462077 L3.34068264,10.4373837 C3.12585383,10.2390538 3.00202551,9.95508673 3.00002463,9.65617586 C2.99802374,9.35726499 3.11803851,9.07152895 3.33019138,8.87010147 C3.77432144,8.4423299 4.5060869,8.44688066 4.95546259,8.88011314 L7.95071766,11.2856456 L15.0349418,5.31868733 C15.4790718,4.89000562 16.209963,4.89455638 16.6593387,5.32778886 C17.1095887,5.76193149 17.11396,6.46638934 16.66983,6.89507105 Z" id="Arrow" fill="#17B978" fill-rule="nonzero"></path>
            </g>
        </g>
    </g>
</svg>